<svg width="80" height="80" viewBox="0 0 80 80" fill="none" xmlns="http://www.w3.org/2000/svg">
<rect width="80" height="80" fill="white"/>
<path fill-rule="evenodd" clip-rule="evenodd" d="M21.3333 73.3333V62.6667H12C9.79086 62.6667 8 60.8758 8 58.6667L8 24C8 21.7909 9.79086 20 12 20H58.6667C60.8758 20 62.6667 21.7909 62.6667 24V58.6667C62.6667 60.8758 60.8758 62.6667 58.6667 62.6667H33.3333L21.3333 73.3333Z" fill="white"/>
<path fill-rule="evenodd" clip-rule="evenodd" d="M21.3333 73.3333V62.6667H12C9.79086 62.6667 8 60.8758 8 58.6667L8 21.3468C8 20.603 8.60298 20 9.3468 20V20C27.0125 20 41.3333 34.3209 41.3333 51.9865V62.6667H33.3333L21.3333 73.3333Z" fill="#59CBE8"/>
<path d="M62.6667 40C62.6667 40 62.6667 48 62.6667 49.3333C62.6667 52 62.6667 57.3333 62.6667 57.3333C62.6667 60.2789 60.2789 62.6667 57.3333 62.6667H33.3333L21.3333 73.3333V62.6667H13.3333C10.3878 62.6667 8 60.2789 8 57.3333L8 25.3333C8 22.3878 10.3878 20 13.3333 20L37.3333 20" stroke="#333333" stroke-width="2" stroke-linecap="round" stroke-linejoin="round"/>
<path d="M34.6667 39.9999H37.3334" stroke="#333333" stroke-width="2" stroke-linecap="round" stroke-linejoin="round"/>
<path d="M44 39.9999H45.3333" stroke="#333333" stroke-width="2" stroke-linecap="round" stroke-linejoin="round"/>
<path d="M49.3333 46.6666H56" stroke="#333333" stroke-width="2" stroke-linecap="round" stroke-linejoin="round"/>
<path d="M34.6667 46.6666H44" stroke="#333333" stroke-width="2" stroke-linecap="round" stroke-linejoin="round"/>
<path d="M34.6667 53.3333H49.3334" stroke="#333333" stroke-width="2" stroke-linecap="round" stroke-linejoin="round"/>
<mask id="path-9-inside-1_10519_6865" fill="white">
<path fill-rule="evenodd" clip-rule="evenodd" d="M35 69.3333C35 68.781 35.4477 68.3333 36 68.3333H61.3333C61.8856 68.3333 62.3333 68.781 62.3333 69.3333C62.3333 69.8855 61.8856 70.3333 61.3333 70.3333H36C35.4477 70.3333 35 69.8855 35 69.3333ZM65.6667 69.3333C65.6667 68.781 66.1144 68.3333 66.6667 68.3333H69.3333C69.8856 68.3333 70.3333 68.781 70.3333 69.3333C70.3333 69.8855 69.8856 70.3333 69.3333 70.3333H66.6667C66.1144 70.3333 65.6667 69.8855 65.6667 69.3333Z"/>
</mask>
<path d="M36 66.3333C34.3431 66.3333 33 67.6764 33 69.3333H37C37 69.8855 36.5523 70.3333 36 70.3333V66.3333ZM61.3333 66.3333H36V70.3333H61.3333V66.3333ZM64.3333 69.3333C64.3333 67.6764 62.9902 66.3333 61.3333 66.3333V70.3333C60.781 70.3333 60.3333 69.8855 60.3333 69.3333H64.3333ZM61.3333 72.3333C62.9902 72.3333 64.3333 70.9901 64.3333 69.3333H60.3333C60.3333 68.781 60.781 68.3333 61.3333 68.3333V72.3333ZM36 72.3333H61.3333V68.3333H36V72.3333ZM33 69.3333C33 70.9901 34.3431 72.3333 36 72.3333V68.3333C36.5523 68.3333 37 68.781 37 69.3333H33ZM66.6667 66.3333C65.0098 66.3333 63.6667 67.6764 63.6667 69.3333H67.6667C67.6667 69.8855 67.2189 70.3333 66.6667 70.3333V66.3333ZM69.3333 66.3333H66.6667V70.3333H69.3333V66.3333ZM72.3333 69.3333C72.3333 67.6764 70.9902 66.3333 69.3333 66.3333V70.3333C68.7811 70.3333 68.3333 69.8855 68.3333 69.3333H72.3333ZM69.3333 72.3333C70.9902 72.3333 72.3333 70.9901 72.3333 69.3333H68.3333C68.3333 68.781 68.7811 68.3333 69.3333 68.3333V72.3333ZM66.6667 72.3333H69.3333V68.3333H66.6667V72.3333ZM63.6667 69.3333C63.6667 70.9901 65.0098 72.3333 66.6667 72.3333V68.3333C67.2189 68.3333 67.6667 68.781 67.6667 69.3333H63.6667Z" fill="#333333" mask="url(#path-9-inside-1_10519_6865)"/>
<rect x="13.3333" y="25.3333" width="14.6667" height="18.6667" rx="1" fill="white" stroke="#333333" stroke-width="2" stroke-linecap="round" stroke-linejoin="round"/>
<ellipse cx="57.3333" cy="20.0001" rx="13.3333" ry="13.3333" fill="white" stroke="#333333" stroke-width="2" stroke-linecap="round" stroke-linejoin="round"/>
<ellipse cx="57.3334" cy="20.0001" rx="6.66667" ry="13.3333" fill="white" stroke="#333333" stroke-width="2" stroke-linecap="round" stroke-linejoin="round"/>
<path d="M57.3333 6.66675V33.3334" stroke="#333333" stroke-width="2" stroke-linecap="round"/>
<path d="M70.6667 20.0001H44" stroke="#333333" stroke-width="2" stroke-linecap="round"/>
</svg>
