<svg width="16" height="14" viewBox="0 0 16 14" fill="none" xmlns="http://www.w3.org/2000/svg">
<path d="M14.5455 13.1847V1.5483H1.45455V6.6392C1.45455 6.84527 1.38485 7.01799 1.24545 7.15739C1.10606 7.29678 0.933333 7.36648 0.727273 7.36648C0.521212 7.36648 0.348485 7.29678 0.209091 7.15739C0.069697 7.01799 0 6.84527 0 6.6392V1.5483C0 1.1483 0.142424 0.805871 0.427273 0.521023C0.712121 0.236174 1.05455 0.09375 1.45455 0.09375H14.5455C14.9455 0.09375 15.2879 0.236174 15.5727 0.521023C15.8576 0.805871 16 1.1483 16 1.5483V11.7301C16 12.1301 15.8576 12.4725 15.5727 12.7574C15.2879 13.0422 14.9455 13.1847 14.5455 13.1847ZM5.81818 8.09375C5.01818 8.09375 4.33333 7.8089 3.76364 7.2392C3.19394 6.66951 2.90909 5.98466 2.90909 5.18466C2.90909 4.38466 3.19394 3.69981 3.76364 3.13011C4.33333 2.56042 5.01818 2.27557 5.81818 2.27557C6.61818 2.27557 7.30303 2.56042 7.87273 3.13011C8.44242 3.69981 8.72727 4.38466 8.72727 5.18466C8.72727 5.98466 8.44242 6.66951 7.87273 7.2392C7.30303 7.8089 6.61818 8.09375 5.81818 8.09375ZM1.45455 13.9119C1.05455 13.9119 0.712121 13.7695 0.427273 13.4847C0.142424 13.1998 0 12.8574 0 12.4574V11.8756C0 11.4634 0.106061 11.0847 0.318182 10.7392C0.530303 10.3938 0.812121 10.1301 1.16364 9.9483C1.91515 9.57254 2.67879 9.29072 3.45455 9.10284C4.2303 8.91496 5.01818 8.82102 5.81818 8.82102C6.61818 8.82102 7.40606 8.91496 8.18182 9.10284C8.95758 9.29072 9.72121 9.57254 10.4727 9.9483C10.8242 10.1301 11.1061 10.3938 11.3182 10.7392C11.5303 11.0847 11.6364 11.4634 11.6364 11.8756V12.4574C11.6364 12.8574 11.4939 13.1998 11.2091 13.4847C10.9242 13.7695 10.5818 13.9119 10.1818 13.9119H1.45455Z" fill="#A24A94"/>
</svg>
