<svg width="16" height="16" viewBox="0 0 16 16" fill="none" xmlns="http://www.w3.org/2000/svg">
<g id="Great-icon-guidance">
<path id="Vector" d="M4 10.9148C4.5697 10.9148 5.12424 10.9784 5.66364 11.1057C6.20303 11.233 6.73939 11.4239 7.27273 11.6784V4.51477C6.77576 4.22386 6.24848 4.00568 5.69091 3.86023C5.13333 3.71477 4.5697 3.64205 4 3.64205C3.56364 3.64205 3.1303 3.68447 2.7 3.76932C2.2697 3.85417 1.85455 3.98144 1.45455 4.15114V11.3511C1.87879 11.2057 2.3 11.0966 2.71818 11.0239C3.13636 10.9511 3.56364 10.9148 4 10.9148ZM8.72727 11.6784C9.26061 11.4239 9.79697 11.233 10.3364 11.1057C10.8758 10.9784 11.4303 10.9148 12 10.9148C12.4364 10.9148 12.8636 10.9511 13.2818 11.0239C13.7 11.0966 14.1212 11.2057 14.5455 11.3511V4.15114C14.1455 3.98144 13.7303 3.85417 13.3 3.76932C12.8697 3.68447 12.4364 3.64205 12 3.64205C11.4303 3.64205 10.8667 3.71477 10.3091 3.86023C9.75151 4.00568 9.22424 4.22386 8.72727 4.51477V11.6784ZM8 13.8239C7.41818 13.3633 6.78788 13.0057 6.10909 12.7511C5.4303 12.4966 4.72727 12.3693 4 12.3693C3.49091 12.3693 2.99091 12.436 2.5 12.5693C2.00909 12.7027 1.53939 12.8905 1.09091 13.133C0.836364 13.2663 0.590909 13.2602 0.354545 13.1148C0.118182 12.9693 0 12.7572 0 12.4784V3.71477C0 3.58144 0.0333333 3.45417 0.1 3.33295C0.166667 3.21174 0.266667 3.12083 0.4 3.06023C0.957576 2.76932 1.53939 2.55114 2.14545 2.40568C2.75152 2.26023 3.3697 2.1875 4 2.1875C4.70303 2.1875 5.39091 2.27841 6.06364 2.46023C6.73636 2.64205 7.38182 2.91477 8 3.27841C8.61818 2.91477 9.26364 2.64205 9.93636 2.46023C10.6091 2.27841 11.297 2.1875 12 2.1875C12.6303 2.1875 13.2485 2.26023 13.8545 2.40568C14.4606 2.55114 15.0424 2.76932 15.6 3.06023C15.7333 3.12083 15.8333 3.21174 15.9 3.33295C15.9667 3.45417 16 3.58144 16 3.71477V12.4784C16 12.7572 15.8818 12.9693 15.6455 13.1148C15.4091 13.2602 15.1636 13.2663 14.9091 13.133C14.4606 12.8905 13.9909 12.7027 13.5 12.5693C13.0091 12.436 12.5091 12.3693 12 12.3693C11.2727 12.3693 10.5697 12.4966 9.89091 12.7511C9.21212 13.0057 8.58182 13.3633 8 13.8239Z" fill="#A24A94"/>
</g>
</svg>
