<svg width="16" height="16" viewBox="0 0 16 16" fill="none" xmlns="http://www.w3.org/2000/svg">
<path d="M6.93439 15.5938C6.5652 15.5938 6.21311 15.5151 5.8781 15.3578C5.5431 15.2005 5.25937 14.9782 5.02692 14.691L0.186458 8.72019C0.0497223 8.55604 -0.011809 8.37138 0.00186458 8.1662C0.0155382 7.96102 0.0975799 7.7832 0.24799 7.63273C0.507789 7.37283 0.815445 7.22237 1.17096 7.18133C1.52647 7.1403 1.8478 7.22237 2.13495 7.42755L4.51416 9.08951V0.820724C4.51416 0.588185 4.59278 0.393263 4.75003 0.235958C4.90728 0.0786527 5.10213 0 5.33458 0C5.56703 0 5.76188 0.0786527 5.91912 0.235958C6.07637 0.393263 6.15499 0.588185 6.15499 0.820724V10.6694C6.15499 10.9977 6.008 11.2405 5.71402 11.3978C5.42004 11.5551 5.13631 11.538 4.86284 11.3465L3.87834 10.6489L6.29857 13.6445C6.38061 13.7403 6.47632 13.8155 6.58571 13.8702C6.6951 13.9249 6.81133 13.9523 6.93439 13.9523H12.7183C13.1696 13.9523 13.5558 13.7916 13.8772 13.4701C14.1985 13.1487 14.3592 12.7623 14.3592 12.3109V6.56579C14.3592 6.33325 14.4378 6.13833 14.595 5.98102C14.7523 5.82372 14.9471 5.74507 15.1796 5.74507C15.412 5.74507 15.6069 5.82372 15.7641 5.98102C15.9214 6.13833 16 6.33325 16 6.56579V12.3109C16 13.2137 15.6787 13.9865 15.036 14.6294C14.3933 15.2723 13.6208 15.5938 12.7183 15.5938H6.93439ZM8.61625 3.28289C8.8487 3.28289 9.04355 3.36155 9.20079 3.51885C9.35804 3.67616 9.43666 3.87108 9.43666 4.10362V8.20724C9.43666 8.43978 9.35804 8.6347 9.20079 8.792C9.04355 8.94931 8.8487 9.02796 8.61625 9.02796C8.38379 9.02796 8.18894 8.94931 8.0317 8.792C7.87445 8.6347 7.79583 8.43978 7.79583 8.20724V4.10362C7.79583 3.87108 7.87445 3.67616 8.0317 3.51885C8.18894 3.36155 8.38379 3.28289 8.61625 3.28289ZM11.8979 4.10362C12.1304 4.10362 12.3252 4.18227 12.4825 4.33958C12.6397 4.49688 12.7183 4.6918 12.7183 4.92434V8.20724C12.7183 8.43978 12.6397 8.6347 12.4825 8.792C12.3252 8.94931 12.1304 9.02796 11.8979 9.02796C11.6655 9.02796 11.4706 8.94931 11.3134 8.792C11.1561 8.6347 11.0775 8.43978 11.0775 8.20724V4.92434C11.0775 4.6918 11.1561 4.49688 11.3134 4.33958C11.4706 4.18227 11.6655 4.10362 11.8979 4.10362Z" fill="#004D44"/>
</svg>
