<svg width="80" height="80" viewBox="0 0 80 80" fill="none" xmlns="http://www.w3.org/2000/svg">
<path fill-rule="evenodd" clip-rule="evenodd" d="M45.3333 17.3333L28 23.9999V65.3333L45.3333 58.6666V17.3333Z" fill="#59CBE8"/>
<path fill-rule="evenodd" clip-rule="evenodd" d="M10.6667 17.3333L28 23.9999V65.3333L10.6667 58.6666V17.3333Z" stroke="#333333" stroke-width="2" stroke-linecap="round" stroke-linejoin="round"/>
<path d="M62.6666 37.3333V65.3333L45.3333 58.6666V17.3333L50.6821 19.3905" stroke="#333333" stroke-width="2" stroke-linecap="round" stroke-linejoin="round"/>
<path fill-rule="evenodd" clip-rule="evenodd" d="M45.3333 17.3333L28 23.9999V65.3333L45.3333 58.6666V17.3333Z" stroke="#333333" stroke-width="2" stroke-linecap="round" stroke-linejoin="round"/>
<path fill-rule="evenodd" clip-rule="evenodd" d="M67.7372 24.3284C68.7324 23.1637 69.3333 21.652 69.3333 19.9999C69.3333 16.318 66.3486 13.3333 62.6667 13.3333C58.9848 13.3333 56 16.318 56 19.9999C56 21.6519 56.6009 23.1636 57.596 24.3283L62.6667 30.6666L67.7372 24.3284Z" fill="#59CBE8"/>
<path d="M67.7372 24.3284L66.977 23.6787C66.97 23.6869 66.9631 23.6952 66.9564 23.7037L67.7372 24.3284ZM57.596 24.3283L58.3769 23.7036C58.3702 23.6952 58.3633 23.6869 58.3563 23.6787L57.596 24.3283ZM62.6667 30.6666L61.8858 31.2913C62.0756 31.5285 62.3629 31.6666 62.6667 31.6666C62.9704 31.6666 63.2578 31.5285 63.4475 31.2913L62.6667 30.6666ZM68.3333 19.9999C68.3333 21.4049 67.8233 22.6883 66.977 23.6787L68.4975 24.978C69.6416 23.639 70.3333 21.899 70.3333 19.9999H68.3333ZM62.6667 14.3333C65.7963 14.3333 68.3333 16.8703 68.3333 19.9999H70.3333C70.3333 15.7657 66.9009 12.3333 62.6667 12.3333V14.3333ZM57 19.9999C57 16.8703 59.5371 14.3333 62.6667 14.3333V12.3333C58.4325 12.3333 55 15.7657 55 19.9999H57ZM58.3563 23.6787C57.51 22.6882 57 21.4049 57 19.9999H55C55 21.8989 55.6917 23.639 56.8357 24.9779L58.3563 23.6787ZM63.4475 30.0419L58.3769 23.7036L56.8152 24.953L61.8858 31.2913L63.4475 30.0419ZM66.9564 23.7037L61.8858 30.0419L63.4475 31.2913L68.5181 24.953L66.9564 23.7037Z" fill="#333333"/>
<path d="M16 48V54.6667" stroke="#333333" stroke-width="2" stroke-linecap="round" stroke-linejoin="round"/>
<path d="M16 42.6666V41.3333" stroke="#333333" stroke-width="2" stroke-linecap="round" stroke-linejoin="round"/>
<path d="M45.3333 17.3333L28 23.9999" stroke="#333333" stroke-width="2" stroke-linecap="round" stroke-linejoin="round"/>
</svg>
