<svg width="16" height="17" viewBox="0 0 16 17" fill="none" xmlns="http://www.w3.org/2000/svg">
<path d="M1 3.5C1 2.94687 1.44687 2.5 2 2.5H14C14.5531 2.5 15 2.94687 15 3.5C15 4.05313 14.5531 4.5 14 4.5H2C1.44687 4.5 1 4.05313 1 3.5ZM1 8.5C1 7.94688 1.44687 7.5 2 7.5H14C14.5531 7.5 15 7.94688 15 8.5C15 9.05312 14.5531 9.5 14 9.5H2C1.44687 9.5 1 9.05312 1 8.5ZM15 13.5C15 14.0531 14.5531 14.5 14 14.5H2C1.44687 14.5 1 14.0531 1 13.5C1 12.9469 1.44687 12.5 2 12.5H14C14.5531 12.5 15 12.9469 15 13.5Z" fill="white"/>
</svg>
